<mxfile>
    <diagram id="NsvPNHikDxemh-OU8pKu" name="Page-1">
        <mxGraphModel dx="690" dy="579" grid="1" gridSize="10" guides="1" tooltips="1" connect="1" arrows="1" fold="1" page="1" pageScale="1" pageWidth="850" pageHeight="1100" math="0" shadow="0">
            <root>
                <mxCell id="0"/>
                <mxCell id="1" parent="0"/>
                <mxCell id="6" style="edgeStyle=orthogonalEdgeStyle;rounded=0;orthogonalLoop=1;jettySize=auto;html=1;exitX=0.25;exitY=1;exitDx=0;exitDy=0;entryX=0.25;entryY=0;entryDx=0;entryDy=0;" edge="1" parent="1" source="2" target="4">
                    <mxGeometry relative="1" as="geometry"/>
                </mxCell>
                <mxCell id="8" style="edgeStyle=orthogonalEdgeStyle;rounded=0;orthogonalLoop=1;jettySize=auto;html=1;exitX=1;exitY=0.25;exitDx=0;exitDy=0;entryX=0;entryY=0.25;entryDx=0;entryDy=0;" edge="1" parent="1" source="2" target="3">
                    <mxGeometry relative="1" as="geometry"/>
                </mxCell>
                <mxCell id="2" value="User" style="whiteSpace=wrap;html=1;aspect=fixed;" vertex="1" parent="1">
                    <mxGeometry x="80" y="40" width="160" height="160" as="geometry"/>
                </mxCell>
                <mxCell id="17" style="edgeStyle=orthogonalEdgeStyle;rounded=0;orthogonalLoop=1;jettySize=auto;html=1;exitX=1;exitY=0.5;exitDx=0;exitDy=0;entryX=0;entryY=0.75;entryDx=0;entryDy=0;fontFamily=Helvetica;" edge="1" parent="1" source="3" target="16">
                    <mxGeometry relative="1" as="geometry"/>
                </mxCell>
                <mxCell id="21" style="edgeStyle=orthogonalEdgeStyle;rounded=0;orthogonalLoop=1;jettySize=auto;html=1;exitX=0.25;exitY=1;exitDx=0;exitDy=0;entryX=0.332;entryY=0.003;entryDx=0;entryDy=0;entryPerimeter=0;fontFamily=Helvetica;" edge="1" parent="1" source="3" target="20">
                    <mxGeometry relative="1" as="geometry"/>
                </mxCell>
                <mxCell id="3" value="Recipe Groups" style="whiteSpace=wrap;html=1;aspect=fixed;" vertex="1" parent="1">
                    <mxGeometry x="320" y="40" width="160" height="160" as="geometry"/>
                </mxCell>
                <mxCell id="24" style="edgeStyle=orthogonalEdgeStyle;rounded=0;orthogonalLoop=1;jettySize=auto;html=1;exitX=0.75;exitY=1;exitDx=0;exitDy=0;fontFamily=Helvetica;entryX=0.75;entryY=1;entryDx=0;entryDy=0;" edge="1" parent="1" source="4" target="14">
                    <mxGeometry relative="1" as="geometry">
                        <mxPoint x="700" y="600" as="targetPoint"/>
                        <Array as="points">
                            <mxPoint x="200" y="520"/>
                            <mxPoint x="690" y="520"/>
                        </Array>
                    </mxGeometry>
                </mxCell>
                <mxCell id="4" value="Comments" style="whiteSpace=wrap;html=1;aspect=fixed;fontFamily=Helvetica;" vertex="1" parent="1">
                    <mxGeometry x="80" y="280" width="160" height="160" as="geometry"/>
                </mxCell>
                <mxCell id="5" value="Recipe" style="whiteSpace=wrap;html=1;aspect=fixed;" vertex="1" parent="1">
                    <mxGeometry x="440" y="400" width="80" height="80" as="geometry"/>
                </mxCell>
                <mxCell id="13" value="Recipe" style="whiteSpace=wrap;html=1;aspect=fixed;fontFamily=Helvetica;" vertex="1" parent="1">
                    <mxGeometry x="520" y="200" width="80" height="80" as="geometry"/>
                </mxCell>
                <mxCell id="14" value="&lt;span&gt;Recipe&lt;/span&gt;" style="whiteSpace=wrap;html=1;aspect=fixed;fontFamily=Helvetica;" vertex="1" parent="1">
                    <mxGeometry x="630" y="200" width="80" height="80" as="geometry"/>
                </mxCell>
                <mxCell id="15" value="&lt;span&gt;Recipe&lt;/span&gt;" style="whiteSpace=wrap;html=1;aspect=fixed;fontFamily=Helvetica;" vertex="1" parent="1">
                    <mxGeometry x="320" y="400" width="80" height="80" as="geometry"/>
                </mxCell>
                <mxCell id="18" style="edgeStyle=orthogonalEdgeStyle;rounded=0;orthogonalLoop=1;jettySize=auto;html=1;exitX=0.25;exitY=1;exitDx=0;exitDy=0;entryX=0.25;entryY=0;entryDx=0;entryDy=0;fontFamily=Helvetica;" edge="1" parent="1" source="16" target="13">
                    <mxGeometry relative="1" as="geometry"/>
                </mxCell>
                <mxCell id="19" style="edgeStyle=orthogonalEdgeStyle;rounded=0;orthogonalLoop=1;jettySize=auto;html=1;exitX=0.75;exitY=1;exitDx=0;exitDy=0;entryX=0.16;entryY=-0.033;entryDx=0;entryDy=0;entryPerimeter=0;fontFamily=Helvetica;" edge="1" parent="1" source="16" target="14">
                    <mxGeometry relative="1" as="geometry"/>
                </mxCell>
                <mxCell id="16" value="Italian" style="whiteSpace=wrap;html=1;aspect=fixed;fontFamily=Helvetica;" vertex="1" parent="1">
                    <mxGeometry x="520" y="40" width="120" height="120" as="geometry"/>
                </mxCell>
                <mxCell id="22" style="edgeStyle=orthogonalEdgeStyle;rounded=0;orthogonalLoop=1;jettySize=auto;html=1;exitX=0.25;exitY=1;exitDx=0;exitDy=0;entryX=0.36;entryY=-0.046;entryDx=0;entryDy=0;entryPerimeter=0;fontFamily=Helvetica;" edge="1" parent="1" source="20" target="15">
                    <mxGeometry relative="1" as="geometry"/>
                </mxCell>
                <mxCell id="23" style="edgeStyle=orthogonalEdgeStyle;rounded=0;orthogonalLoop=1;jettySize=auto;html=1;exitX=1;exitY=1;exitDx=0;exitDy=0;entryX=0;entryY=0;entryDx=0;entryDy=0;fontFamily=Helvetica;" edge="1" parent="1" source="20" target="5">
                    <mxGeometry relative="1" as="geometry"/>
                </mxCell>
                <mxCell id="20" value="Mexican" style="whiteSpace=wrap;html=1;aspect=fixed;fontFamily=Helvetica;" vertex="1" parent="1">
                    <mxGeometry x="320" y="250" width="120" height="120" as="geometry"/>
                </mxCell>
                <mxCell id="29" value="" style="endArrow=classic;html=1;fontFamily=Helvetica;entryX=0.5;entryY=1;entryDx=0;entryDy=0;" edge="1" parent="1" target="5">
                    <mxGeometry width="50" height="50" relative="1" as="geometry">
                        <mxPoint x="480" y="520" as="sourcePoint"/>
                        <mxPoint x="420" y="280" as="targetPoint"/>
                    </mxGeometry>
                </mxCell>
                <mxCell id="30" value="" style="endArrow=classic;html=1;fontFamily=Helvetica;entryX=0.5;entryY=1;entryDx=0;entryDy=0;" edge="1" parent="1" target="13">
                    <mxGeometry width="50" height="50" relative="1" as="geometry">
                        <mxPoint x="560" y="520" as="sourcePoint"/>
                        <mxPoint x="420" y="280" as="targetPoint"/>
                    </mxGeometry>
                </mxCell>
                <mxCell id="32" value="" style="endArrow=classic;html=1;fontFamily=Helvetica;entryX=0.5;entryY=1;entryDx=0;entryDy=0;" edge="1" parent="1" target="15">
                    <mxGeometry width="50" height="50" relative="1" as="geometry">
                        <mxPoint x="360" y="520" as="sourcePoint"/>
                        <mxPoint x="360" y="480" as="targetPoint"/>
                        <Array as="points">
                            <mxPoint x="360" y="500"/>
                            <mxPoint x="360" y="490"/>
                        </Array>
                    </mxGeometry>
                </mxCell>
            </root>
        </mxGraphModel>
    </diagram>
</mxfile>